<?xml version="1.0" encoding="UTF-8" standalone="no"?>
<svg
   xmlns:dc="http://purl.org/dc/elements/1.1/"
   xmlns:cc="http://creativecommons.org/ns#"
   xmlns:rdf="http://www.w3.org/1999/02/22-rdf-syntax-ns#"
   xmlns:svg="http://www.w3.org/2000/svg"
   xmlns="http://www.w3.org/2000/svg"
   xmlns:sodipodi="http://sodipodi.sourceforge.net/DTD/sodipodi-0.dtd"
   xmlns:inkscape="http://www.inkscape.org/namespaces/inkscape"
   inkscape:export-ydpi="96"
   inkscape:export-xdpi="96"
   inkscape:export-filename="D:\projects\OUU_SampleProject\OUU_Splash.png"
   sodipodi:docname="OUU_Splash.svg"
   inkscape:version="1.0 (4035a4fb49, 2020-05-01)"
   id="svg8"
   version="1.1"
   viewBox="0 0 190.5 97.895834"
   height="370"
   width="720">
  <defs
     id="defs2">
    <style
       id="style1180">.cls-1{fill-rule:evenodd;}</style>
  </defs>
  <sodipodi:namedview
     inkscape:window-maximized="1"
     inkscape:window-y="-8"
     inkscape:window-x="-8"
     inkscape:window-height="1377"
     inkscape:window-width="2560"
     inkscape:snap-midpoints="true"
     inkscape:snap-bbox="true"
     inkscape:object-paths="true"
     inkscape:snap-intersection-paths="true"
     inkscape:snap-smooth-nodes="true"
     showgrid="false"
     inkscape:document-rotation="0"
     inkscape:current-layer="layer1"
     inkscape:document-units="mm"
     inkscape:cy="291.72352"
     inkscape:cx="-35.351825"
     inkscape:zoom="0.98994949"
     inkscape:pageshadow="2"
     inkscape:pageopacity="0.0"
     borderopacity="1.0"
     bordercolor="#666666"
     pagecolor="#ffffff"
     id="base"
     units="px">
    <inkscape:grid
       id="grid855"
       type="xygrid" />
  </sodipodi:namedview>
  <metadata
     id="metadata5">
    <rdf:RDF>
      <cc:Work
         rdf:about="">
        <dc:format>image/svg+xml</dc:format>
        <dc:type
           rdf:resource="http://purl.org/dc/dcmitype/StillImage" />
        <dc:title></dc:title>
      </cc:Work>
    </rdf:RDF>
  </metadata>
  <g
     id="layer1"
     inkscape:groupmode="layer"
     inkscape:label="Layer 1">
    <rect
       y="-44.366741"
       x="-237.60262"
       height="228.24818"
       width="453.5564"
       id="rect990"
       style="fill:#ececec;fill-opacity:1;stroke-width:0.069394;stroke-opacity:0.991968" />
    <rect
       y="0"
       x="0"
       height="97.895836"
       width="190.5"
       id="rect845"
       style="fill:#ffffff;fill-opacity:1;stroke-width:0.391015;stroke-opacity:0.991968" />
    <path
       d="m 82.415083,16.404491 v 23.05649 c 0,6.992643 -4.672083,12.885961 -11.062915,14.749536 -1.581011,2.169974 -3.52439,4.085921 -5.866193,5.596015 -1.675328,1.196051 -3.437811,2.071753 -5.262765,2.710938 h 6.820883 c 12.733747,0 23.056488,-10.322748 23.056488,-23.056489 v -23.05649 z"
       style="fill:#2bbbd9;fill-opacity:1;stroke:#ffcc00;stroke-width:0;stroke-miterlimit:17.5;stroke-dasharray:none;stroke-opacity:0.991968"
       id="path866-4-9-5-7-2-6" />
    <path
       d="m 67.044093,16.404491 v 23.05649 c 0,7.048752 -4.749269,12.975539 -11.21903,14.788565 -2.814921,3.687655 -6.631386,6.609443 -10.954834,8.267924 h 6.802866 c 12.733748,0 23.056491,-10.322748 23.056491,-23.056489 v -23.05649 z"
       style="fill:#2d94e3;fill-opacity:1;stroke:#ffcc00;stroke-width:0;stroke-miterlimit:17.5;stroke-dasharray:none;stroke-opacity:0.991968"
       id="path866-4-9-5-0-0-1" />
    <path
       d="m 36.127974,16.404491 a 23.05649,23.05649 0 0 0 -22.882361,23.05649 23.05649,23.05649 0 0 0 23.05649,23.056495 23.05649,23.05649 0 0 0 23.05649,-23.056495 23.05649,23.05649 0 0 0 -23.05649,-23.05649 23.05649,23.05649 0 0 0 -0.174111,0 z m 0.144135,7.685493 a 15.370993,15.370993 0 0 1 0.03022,0 A 15.370993,15.370993 0 0 1 51.673292,39.460981 15.370993,15.370993 0 0 1 36.302301,54.831978 15.370993,15.370993 0 0 1 20.931309,39.460981 15.370993,15.370993 0 0 1 36.272283,24.089984 Z"
       style="fill:#3260cc;fill-opacity:1;stroke:#ffcc00;stroke-width:0;stroke-miterlimit:17.5;stroke-dasharray:none;stroke-opacity:0.991968"
       id="path969-2-2-9-3" />
    <text
       id="text837"
       y="32.761993"
       x="97.572784"
       style="font-size:18.8904px;line-height:1.25;font-family:Poppins;-inkscape-font-specification:Poppins;fill:#3260cc;fill-opacity:1;stroke-width:0.472265"
       xml:space="preserve"><tspan
         style="font-style:normal;font-variant:normal;font-weight:bold;font-stretch:normal;font-family:Poppins;-inkscape-font-specification:'Poppins Bold';fill:#3260cc;fill-opacity:1;stroke-width:0.472265"
         y="32.761993"
         x="97.572784"
         id="tspan835"
         sodipodi:role="line">Sample</tspan><tspan
         id="tspan855"
         style="font-style:normal;font-variant:normal;font-weight:bold;font-stretch:normal;font-family:Poppins;-inkscape-font-specification:'Poppins Bold';fill:#3260cc;fill-opacity:1;stroke-width:0.472265"
         y="56.374992"
         x="97.572784"
         sodipodi:role="line">Project</tspan></text>
    <rect
       y="-1.0583333"
       x="-2.3812499"
       height="18.25625"
       width="20.902082"
       id="rect839"
       style="fill:#ffffff;fill-opacity:0;stroke-width:0.0499999;stroke-opacity:0.991968" />
    <rect
       y="-0.79374999"
       x="-1.3229166"
       height="17.727085"
       width="18.785414"
       id="rect841"
       style="fill:#ffffff;fill-opacity:0;stroke-width:0.0499999;stroke-opacity:0.991968" />
    <rect
       y="0.79374999"
       x="0.26458332"
       height="19.314583"
       width="18.785416"
       id="rect843"
       style="fill:#ffffff;fill-opacity:0;stroke-width:0.0499999;stroke-opacity:0.991968" />
    <rect
       y="80.298645"
       x="1.7881392e-07"
       height="17.597193"
       width="190.5"
       id="rect857"
       style="fill:#3260cc;fill-opacity:1;stroke-width:0.0612742;stroke-opacity:0.991968" />
    <text
       id="text861"
       y="86.325592"
       x="101.53402"
       style="font-size:3.73062px;line-height:1.25;font-family:Poppins;-inkscape-font-specification:Poppins;fill:#ffffff;stroke-width:0.0932655"
       xml:space="preserve"><tspan
         style="fill:#ffffff;stroke-width:0.0932655"
         y="86.325592"
         x="101.53402"
         id="tspan859"
         sodipodi:role="line">Copyright (c) 2023 Jonas Reich &amp; Contributors</tspan></text>
    <rect
       style="fill:#2bbbd9;fill-opacity:1;stroke-width:0.0228952;stroke-opacity:0.991968"
       id="rect857-8"
       width="190.5"
       height="2.4568465"
       x="7.6293945e-06"
       y="0" />
    <rect
       y="2.4568465"
       x="2.8610229e-06"
       height="1.3229179"
       width="190.5"
       id="rect857-8-8"
       style="fill:#2d94e3;fill-opacity:1;stroke-width:0.0168005;stroke-opacity:0.991968" />
    <rect
       style="fill:#2d94e3;fill-opacity:1;stroke-width:0.0168005;stroke-opacity:0.991968"
       id="rect857-8-8-2"
       width="190.5"
       height="1.3229179"
       x="4.4703469e-08"
       y="78.975723" />
    <rect
       y="76.518875"
       x="0"
       height="2.4568465"
       width="190.5"
       id="rect857-8-84"
       style="fill:#2bbbd9;fill-opacity:1;stroke-width:0.0228952;stroke-opacity:0.991968" />
    <rect
       inkscape:export-ydpi="25.4"
       inkscape:export-xdpi="25.4"
       y="-22.300596"
       x="-209.02083"
       height="192"
       width="192"
       id="rect923"
       style="fill:#ffffff;fill-opacity:1;stroke-width:0.0499999;stroke-opacity:0.991968" />
    <path
       id="path866-4-9-5-7-2-6-2"
       style="fill:#2bbbd9;fill-opacity:1;stroke:#ffcc00;stroke-width:0;stroke-miterlimit:17.5;stroke-dasharray:none;stroke-opacity:0.991968"
       d="m -52.131115,15.697836 v 46.068397 c 0,13.971758 -9.335126,25.747002 -22.104428,29.470558 -3.158962,4.33574 -7.041964,8.16394 -11.721036,11.181199 -3.34742,2.38979 -6.868992,4.13949 -10.515363,5.41664 h 13.62857 c 25.442877,0 46.068395,-20.62554 46.068395,-46.068397 V 15.697836 Z" />
    <path
       id="path866-4-9-5-0-0-1-6"
       style="fill:#2d94e3;fill-opacity:1;stroke:#ffcc00;stroke-width:0;stroke-miterlimit:17.5;stroke-dasharray:none;stroke-opacity:0.991968"
       d="m -82.843372,15.697836 v 46.068397 c 0,14.08387 -9.489356,25.925989 -22.416368,29.548528 -5.62439,7.36818 -13.24993,13.206109 -21.88847,16.519869 h 13.59258 c 25.442858,0 46.068396,-20.62554 46.068396,-46.068397 V 15.697836 Z" />
    <path
       id="path969-2-2-9-3-7"
       style="fill:#3260cc;fill-opacity:1;stroke:#ffcc00;stroke-width:0;stroke-miterlimit:17.5;stroke-dasharray:none;stroke-opacity:0.991968"
       d="m -144.61583,15.697836 a 46.068395,46.068395 0 0 0 -45.72047,46.068397 46.068395,46.068395 0 0 0 46.0684,46.068397 46.068395,46.068395 0 0 0 46.06839,-46.068397 46.068395,46.068395 0 0 0 -46.06839,-46.068397 46.068395,46.068395 0 0 0 -0.34789,0 z m 0.288,15.356124 a 30.712263,30.712263 0 0 1 0.0603,0 30.712263,30.712263 0 0 1 30.71219,30.712273 30.712263,30.712263 0 0 1 -30.71225,30.712278 30.712263,30.712263 0 0 1 -30.71226,-30.712278 30.712263,30.712263 0 0 1 30.65227,-30.712273 z" />
    <text
       xml:space="preserve"
       style="font-size:20.0373px;line-height:1.25;font-family:Poppins;-inkscape-font-specification:Poppins;fill:#3260cc;fill-opacity:1;stroke-width:0.500937"
       x="-191.049"
       y="133.31252"
       id="text837-6"><tspan
         sodipodi:role="line"
         x="-191.049"
         y="133.31252"
         style="font-style:normal;font-variant:normal;font-weight:bold;font-stretch:normal;font-family:Poppins;-inkscape-font-specification:'Poppins Bold';fill:#3260cc;fill-opacity:1;stroke-width:0.500937"
         id="tspan855-8">Sample Project</tspan></text>
    <rect
       style="fill:#3260cc;fill-opacity:1;stroke-width:0.0501964;stroke-opacity:0.991968"
       id="rect857-7"
       width="192"
       height="11.717263"
       x="-209.02083"
       y="157.98215" />
    <rect
       y="-22.300596"
       x="-209.02083"
       height="2.4568465"
       width="192"
       id="rect857-8-0"
       style="fill:#2bbbd9;fill-opacity:1;stroke-width:0.0229852;stroke-opacity:0.991968" />
    <rect
       style="fill:#2d94e3;fill-opacity:1;stroke-width:0.0168665;stroke-opacity:0.991968"
       id="rect857-8-8-5"
       width="192"
       height="1.3229179"
       x="-209.02083"
       y="-20.150856" />
    <rect
       y="156.65921"
       x="-209.02083"
       height="1.3229179"
       width="192"
       id="rect857-8-8-2-6"
       style="fill:#2d94e3;fill-opacity:1;stroke-width:0.0168665;stroke-opacity:0.991968" />
    <rect
       style="fill:#2bbbd9;fill-opacity:1;stroke-width:0.0229852;stroke-opacity:0.991968"
       id="rect857-8-84-3"
       width="191.99998"
       height="2.4568465"
       x="-209.02083"
       y="154.20236" />
    <text
       xml:space="preserve"
       style="font-size:4.61857px;line-height:1.25;font-family:Poppins;-inkscape-font-specification:Poppins;fill:#ffffff;stroke-width:0.115464"
       x="-166.23581"
       y="165.36958"
       id="text861-8"><tspan
         sodipodi:role="line"
         id="tspan859-0"
         x="-166.23581"
         y="165.36958"
         style="fill:#ffffff;stroke-width:0.115464">Copyright (c) 2023 Jonas Reich &amp; Contributors</tspan></text>
  </g>
</svg>
